<svg width="159" height="63" viewBox="0 0 159 63" fill="none" xmlns="http://www.w3.org/2000/svg">
<rect x="1" width="158" height="63" rx="20" fill="#5383EC"/>
<path d="M45.7734 37.6094C45.7734 37.1113 45.6953 36.6719 45.5391 36.291C45.3926 35.9004 45.1289 35.5488 44.748 35.2363C44.377 34.9238 43.8594 34.626 43.1953 34.3428C42.541 34.0596 41.7109 33.7715 40.7051 33.4785C39.6504 33.166 38.6982 32.8193 37.8486 32.4385C36.999 32.0479 36.2715 31.6035 35.666 31.1055C35.0605 30.6074 34.5967 30.0361 34.2744 29.3916C33.9521 28.7471 33.791 28.0098 33.791 27.1797C33.791 26.3496 33.9619 25.583 34.3037 24.8799C34.6455 24.1768 35.1338 23.5664 35.7686 23.0488C36.4131 22.5215 37.1797 22.1113 38.0684 21.8184C38.957 21.5254 39.9482 21.3789 41.042 21.3789C42.6436 21.3789 44.001 21.6865 45.1143 22.3018C46.2373 22.9072 47.0918 23.7031 47.6777 24.6895C48.2637 25.666 48.5566 26.7109 48.5566 27.8242H45.7441C45.7441 27.0234 45.5732 26.3154 45.2314 25.7002C44.8896 25.0752 44.3721 24.5869 43.6787 24.2354C42.9854 23.874 42.1064 23.6934 41.042 23.6934C40.0361 23.6934 39.2061 23.8447 38.5518 24.1475C37.8975 24.4502 37.4092 24.8604 37.0869 25.3779C36.7744 25.8955 36.6182 26.4863 36.6182 27.1504C36.6182 27.5996 36.7109 28.0098 36.8965 28.3809C37.0918 28.7422 37.3896 29.0791 37.79 29.3916C38.2002 29.7041 38.7178 29.9922 39.3428 30.2559C39.9775 30.5195 40.7344 30.7734 41.6133 31.0176C42.8242 31.3594 43.8691 31.7402 44.748 32.1602C45.627 32.5801 46.3496 33.0537 46.916 33.5811C47.4922 34.0986 47.917 34.6895 48.1904 35.3535C48.4736 36.0078 48.6152 36.75 48.6152 37.5801C48.6152 38.4492 48.4395 39.2354 48.0879 39.9385C47.7363 40.6416 47.2334 41.2422 46.5791 41.7402C45.9248 42.2383 45.1387 42.624 44.2207 42.8975C43.3125 43.1611 42.2969 43.293 41.1738 43.293C40.1875 43.293 39.2158 43.1562 38.2588 42.8828C37.3115 42.6094 36.4473 42.1992 35.666 41.6523C34.8945 41.1055 34.2744 40.4316 33.8057 39.6309C33.3467 38.8203 33.1172 37.8828 33.1172 36.8184H35.9297C35.9297 37.5508 36.0713 38.1807 36.3545 38.708C36.6377 39.2256 37.0234 39.6553 37.5117 39.9971C38.0098 40.3389 38.5713 40.5928 39.1963 40.7588C39.8311 40.915 40.4902 40.9932 41.1738 40.9932C42.1602 40.9932 42.9951 40.8564 43.6787 40.583C44.3623 40.3096 44.8799 39.9189 45.2314 39.4111C45.5928 38.9033 45.7734 38.3027 45.7734 37.6094ZM58.9857 43.293C57.8822 43.293 56.8812 43.1074 55.9828 42.7363C55.0941 42.3555 54.3275 41.8232 53.683 41.1396C53.0482 40.4561 52.56 39.6455 52.2182 38.708C51.8764 37.7705 51.7055 36.7451 51.7055 35.6318V35.0166C51.7055 33.7275 51.8959 32.5801 52.2768 31.5742C52.6576 30.5586 53.1752 29.6992 53.8295 28.9961C54.4838 28.293 55.226 27.7607 56.0561 27.3994C56.8861 27.0381 57.7455 26.8574 58.6342 26.8574C59.767 26.8574 60.7436 27.0527 61.5639 27.4434C62.3939 27.834 63.0727 28.3809 63.6 29.084C64.1273 29.7773 64.518 30.5977 64.7719 31.5449C65.0258 32.4824 65.1527 33.5078 65.1527 34.6211V35.8369H53.3168V33.625H62.4428V33.4199C62.4037 32.7168 62.2572 32.0332 62.0033 31.3691C61.7592 30.7051 61.3686 30.1582 60.8314 29.7285C60.2943 29.2988 59.5619 29.084 58.6342 29.084C58.0189 29.084 57.4525 29.2158 56.935 29.4795C56.4174 29.7334 55.973 30.1143 55.602 30.6221C55.2309 31.1299 54.9428 31.75 54.7377 32.4824C54.5326 33.2148 54.4301 34.0596 54.4301 35.0166V35.6318C54.4301 36.3838 54.5326 37.0918 54.7377 37.7559C54.9525 38.4102 55.2602 38.9863 55.6605 39.4844C56.0707 39.9824 56.5639 40.373 57.14 40.6562C57.726 40.9395 58.39 41.0811 59.1322 41.0811C60.0893 41.0811 60.8998 40.8857 61.5639 40.4951C62.2279 40.1045 62.809 39.582 63.307 38.9277L64.9477 40.2314C64.6059 40.749 64.1713 41.2422 63.6439 41.7109C63.1166 42.1797 62.4672 42.5605 61.6957 42.8535C60.934 43.1465 60.0307 43.293 58.9857 43.293ZM78.2625 40.29V32.1309C78.2625 31.5059 78.1355 30.9639 77.8816 30.5049C77.6375 30.0361 77.2664 29.6748 76.7684 29.4209C76.2703 29.167 75.6551 29.04 74.9227 29.04C74.2391 29.04 73.6385 29.1572 73.1209 29.3916C72.6131 29.626 72.2127 29.9336 71.9197 30.3145C71.6365 30.6953 71.4949 31.1055 71.4949 31.5449H68.785C68.785 30.9785 68.9314 30.417 69.2244 29.8604C69.5174 29.3037 69.9373 28.8008 70.4842 28.3516C71.0408 27.8926 71.7049 27.5312 72.4764 27.2676C73.2576 26.9941 74.1268 26.8574 75.0838 26.8574C76.2361 26.8574 77.2518 27.0527 78.1307 27.4434C79.0193 27.834 79.7127 28.4248 80.2107 29.2158C80.7186 29.9971 80.9725 30.9785 80.9725 32.1602V39.543C80.9725 40.0703 81.0164 40.6318 81.1043 41.2275C81.202 41.8232 81.3436 42.3359 81.5291 42.7656V43H78.702C78.5652 42.6875 78.4578 42.2725 78.3797 41.7549C78.3016 41.2275 78.2625 40.7393 78.2625 40.29ZM78.7312 33.3906L78.7605 35.2949H76.0213C75.2498 35.2949 74.5613 35.3584 73.9559 35.4854C73.3504 35.6025 72.8426 35.7832 72.4324 36.0273C72.0223 36.2715 71.7098 36.5791 71.4949 36.9502C71.2801 37.3115 71.1727 37.7363 71.1727 38.2246C71.1727 38.7227 71.285 39.1768 71.5096 39.5869C71.7342 39.9971 72.0711 40.3242 72.5203 40.5684C72.9793 40.8027 73.5408 40.9199 74.2049 40.9199C75.035 40.9199 75.7674 40.7441 76.4021 40.3926C77.0369 40.041 77.5398 39.6113 77.9109 39.1035C78.2918 38.5957 78.4969 38.1025 78.5262 37.624L79.6834 38.9277C79.615 39.3379 79.4295 39.792 79.1268 40.29C78.824 40.7881 78.4187 41.2666 77.9109 41.7256C77.4129 42.1748 76.8172 42.5508 76.1238 42.8535C75.4402 43.1465 74.6687 43.293 73.8094 43.293C72.7352 43.293 71.7928 43.083 70.9822 42.6631C70.1814 42.2432 69.5564 41.6816 69.1072 40.9785C68.6678 40.2656 68.448 39.4697 68.448 38.5908C68.448 37.7412 68.6141 36.9941 68.9461 36.3496C69.2781 35.6953 69.7566 35.1533 70.3816 34.7236C71.0066 34.2842 71.7586 33.9521 72.6375 33.7275C73.5164 33.5029 74.4978 33.3906 75.5818 33.3906H78.7312ZM88.5451 29.6406V43H85.8352V27.1504H88.4719L88.5451 29.6406ZM93.4963 27.0625L93.4816 29.582C93.257 29.5332 93.0422 29.5039 92.8371 29.4941C92.6418 29.4746 92.4172 29.4648 92.1633 29.4648C91.5383 29.4648 90.9865 29.5625 90.508 29.7578C90.0295 29.9531 89.6242 30.2266 89.2922 30.5781C88.9602 30.9297 88.6965 31.3496 88.5012 31.8379C88.3156 32.3164 88.1936 32.8438 88.135 33.4199L87.3732 33.8594C87.3732 32.9023 87.466 32.0039 87.6516 31.1641C87.8469 30.3242 88.1447 29.582 88.5451 28.9375C88.9455 28.2832 89.4533 27.7754 90.0686 27.4141C90.6936 27.043 91.4357 26.8574 92.2951 26.8574C92.4904 26.8574 92.715 26.8818 92.9689 26.9307C93.2229 26.9697 93.3986 27.0137 93.4963 27.0625ZM102.651 41.0664C103.296 41.0664 103.891 40.9346 104.438 40.6709C104.985 40.4072 105.434 40.0459 105.786 39.5869C106.137 39.1182 106.338 38.5859 106.386 37.9902H108.964C108.916 38.9277 108.598 39.8018 108.012 40.6123C107.436 41.4131 106.679 42.0625 105.742 42.5605C104.804 43.0488 103.774 43.293 102.651 43.293C101.46 43.293 100.42 43.083 99.5309 42.6631C98.652 42.2432 97.9195 41.667 97.3336 40.9346C96.7574 40.2021 96.3229 39.3623 96.0299 38.415C95.7467 37.458 95.6051 36.4473 95.6051 35.3828V34.7676C95.6051 33.7031 95.7467 32.6973 96.0299 31.75C96.3229 30.793 96.7574 29.9482 97.3336 29.2158C97.9195 28.4834 98.652 27.9072 99.5309 27.4873C100.42 27.0674 101.46 26.8574 102.651 26.8574C103.891 26.8574 104.975 27.1113 105.903 27.6191C106.831 28.1172 107.558 28.8008 108.086 29.6699C108.623 30.5293 108.916 31.5059 108.964 32.5996H106.386C106.338 31.9453 106.152 31.3545 105.83 30.8271C105.517 30.2998 105.088 29.8799 104.541 29.5674C104.004 29.2451 103.374 29.084 102.651 29.084C101.821 29.084 101.123 29.25 100.556 29.582C99.9996 29.9043 99.5553 30.3438 99.2232 30.9004C98.901 31.4473 98.6666 32.0576 98.5201 32.7314C98.3834 33.3955 98.315 34.0742 98.315 34.7676V35.3828C98.315 36.0762 98.3834 36.7598 98.5201 37.4336C98.6568 38.1074 98.8863 38.7178 99.2086 39.2646C99.5406 39.8115 99.985 40.251 100.542 40.583C101.108 40.9053 101.811 41.0664 102.651 41.0664ZM115.321 20.5V43H112.611V20.5H115.321ZM114.677 34.4746L113.549 34.4307C113.559 33.3467 113.72 32.3457 114.032 31.4277C114.345 30.5 114.784 29.6943 115.351 29.0107C115.917 28.3271 116.591 27.7998 117.372 27.4287C118.163 27.0479 119.037 26.8574 119.994 26.8574C120.775 26.8574 121.479 26.9648 122.104 27.1797C122.729 27.3848 123.261 27.7168 123.7 28.1758C124.149 28.6348 124.491 29.2305 124.726 29.9629C124.96 30.6855 125.077 31.5693 125.077 32.6143V43H122.353V32.585C122.353 31.7549 122.23 31.0908 121.986 30.5928C121.742 30.085 121.386 29.7188 120.917 29.4941C120.448 29.2598 119.872 29.1426 119.188 29.1426C118.515 29.1426 117.899 29.2842 117.343 29.5674C116.796 29.8506 116.322 30.2412 115.922 30.7393C115.531 31.2373 115.224 31.8086 114.999 32.4531C114.784 33.0879 114.677 33.7617 114.677 34.4746Z" fill="black"/>
</svg>
