<svg width="781" height="103" viewBox="0 0 781 103" fill="none" xmlns="http://www.w3.org/2000/svg">
<g filter="url(#filter0_d_628_5)">
<rect width="765" height="87" rx="30" fill="white"/>
<rect x="0.5" y="0.5" width="764" height="86" rx="29.5" stroke="black"/>
</g>
<g clip-path="url(#clip0_628_5)">
<path d="M720.938 48.3333H719.259L718.664 47.7483C720.746 45.2783 722 42.0717 722 38.5833C722 30.805 715.816 24.5 708.188 24.5C700.559 24.5 694.375 30.805 694.375 38.5833C694.375 46.3617 700.559 52.6667 708.188 52.6667C711.609 52.6667 714.754 51.3883 717.176 49.265L717.75 49.8717V51.5833L728.375 62.395L731.541 59.1667L720.938 48.3333ZM708.188 48.3333C702.896 48.3333 698.625 43.9783 698.625 38.5833C698.625 33.1883 702.896 28.8333 708.188 28.8333C713.479 28.8333 717.75 33.1883 717.75 38.5833C717.75 43.9783 713.479 48.3333 708.188 48.3333Z" fill="black"/>
</g>
<defs>
<filter id="filter0_d_628_5" x="0" y="0" width="781" height="103" filterUnits="userSpaceOnUse" color-interpolation-filters="sRGB">
<feFlood flood-opacity="0" result="BackgroundImageFix"/>
<feColorMatrix in="SourceAlpha" type="matrix" values="0 0 0 0 0 0 0 0 0 0 0 0 0 0 0 0 0 0 127 0" result="hardAlpha"/>
<feOffset dx="8" dy="8"/>
<feGaussianBlur stdDeviation="4"/>
<feComposite in2="hardAlpha" operator="out"/>
<feColorMatrix type="matrix" values="0 0 0 0 0 0 0 0 0 0 0 0 0 0 0 0 0 0 0.25 0"/>
<feBlend mode="normal" in2="BackgroundImageFix" result="effect1_dropShadow_628_5"/>
<feBlend mode="normal" in="SourceGraphic" in2="effect1_dropShadow_628_5" result="shape"/>
</filter>
<clipPath id="clip0_628_5">
<rect width="51" height="52" fill="white" transform="translate(688 18)"/>
</clipPath>
</defs>
</svg>
