<svg width="241" height="63" viewBox="0 0 241 63" fill="none" xmlns="http://www.w3.org/2000/svg">
<rect width="241" height="63" rx="20" fill="#E5E5E5"/>
<path d="M26.8662 23.2266H29.21V35.2505C29.21 36.5851 28.9129 37.696 28.3188 38.583C27.7248 39.4701 26.9354 40.1374 25.9507 40.585C24.9741 41.0244 23.9121 41.2441 22.7646 41.2441C21.5602 41.2441 20.4697 41.0244 19.4932 40.585C18.5247 40.1374 17.7557 39.4701 17.186 38.583C16.6245 37.696 16.3438 36.5851 16.3438 35.2505V23.2266H18.6753V35.2505C18.6753 36.1782 18.8462 36.9432 19.188 37.5454C19.5298 38.1476 20.0059 38.5952 20.6162 38.8882C21.2347 39.1812 21.9508 39.3276 22.7646 39.3276C23.5866 39.3276 24.3027 39.1812 24.9131 38.8882C25.5316 38.5952 26.0117 38.1476 26.3535 37.5454C26.6953 36.9432 26.8662 36.1782 26.8662 35.2505V23.2266ZM35.3252 30.3311V46.0781H33.0547V27.792H35.1299L35.3252 30.3311ZM44.2241 34.2861V34.5425C44.2241 35.5028 44.1102 36.3939 43.8823 37.2158C43.6545 38.0296 43.3208 38.7376 42.8813 39.3398C42.45 39.9421 41.917 40.41 41.2822 40.7437C40.6475 41.0773 39.9191 41.2441 39.0972 41.2441C38.259 41.2441 37.5184 41.1058 36.8755 40.8291C36.2326 40.5524 35.6873 40.1496 35.2397 39.6206C34.7922 39.0916 34.4341 38.4569 34.1655 37.7163C33.9051 36.9757 33.7261 36.1416 33.6284 35.2139V33.8467C33.7261 32.8701 33.9092 31.9953 34.1777 31.2222C34.4463 30.4491 34.8003 29.7899 35.2397 29.2446C35.6873 28.6912 36.2285 28.2721 36.8633 27.9873C37.498 27.6943 38.2305 27.5479 39.0605 27.5479C39.8906 27.5479 40.6271 27.7106 41.27 28.0361C41.9129 28.3535 42.4541 28.8092 42.8936 29.4033C43.333 29.9974 43.6626 30.7095 43.8823 31.5396C44.1102 32.3615 44.2241 33.277 44.2241 34.2861ZM41.9536 34.5425V34.2861C41.9536 33.627 41.8844 33.0085 41.7461 32.4307C41.6077 31.8447 41.3921 31.332 41.0991 30.8926C40.8143 30.445 40.4481 30.0951 40.0005 29.8428C39.5529 29.5824 39.0199 29.4521 38.4014 29.4521C37.8317 29.4521 37.3353 29.5498 36.9121 29.7451C36.4971 29.9404 36.1431 30.2049 35.8501 30.5386C35.5571 30.8641 35.3171 31.2384 35.1299 31.6616C34.9508 32.0767 34.8166 32.508 34.7271 32.9556V36.1172C34.8898 36.6868 35.1177 37.224 35.4106 37.7285C35.7036 38.2249 36.0942 38.6278 36.5825 38.937C37.0708 39.2381 37.6852 39.3887 38.4258 39.3887C39.0361 39.3887 39.561 39.2625 40.0005 39.0103C40.4481 38.7498 40.8143 38.3958 41.0991 37.9482C41.3921 37.5007 41.6077 36.988 41.7461 36.4102C41.8844 35.8242 41.9536 35.2017 41.9536 34.5425ZM50.0586 22.25V41H47.7881V22.25H50.0586ZM53.5859 34.5425V34.2617C53.5859 33.3096 53.7243 32.4266 54.001 31.6128C54.2777 30.7909 54.6764 30.0788 55.1973 29.4766C55.7181 28.8662 56.3488 28.3942 57.0894 28.0605C57.8299 27.7188 58.66 27.5479 59.5796 27.5479C60.5073 27.5479 61.3415 27.7188 62.082 28.0605C62.8307 28.3942 63.4655 28.8662 63.9863 29.4766C64.5153 30.0788 64.9181 30.7909 65.1948 31.6128C65.4715 32.4266 65.6099 33.3096 65.6099 34.2617V34.5425C65.6099 35.4946 65.4715 36.3776 65.1948 37.1914C64.9181 38.0052 64.5153 38.7173 63.9863 39.3276C63.4655 39.9299 62.8348 40.4019 62.0942 40.7437C61.3618 41.0773 60.5317 41.2441 59.604 41.2441C58.6763 41.2441 57.8421 41.0773 57.1016 40.7437C56.361 40.4019 55.7262 39.9299 55.1973 39.3276C54.6764 38.7173 54.2777 38.0052 54.001 37.1914C53.7243 36.3776 53.5859 35.4946 53.5859 34.5425ZM55.8442 34.2617V34.5425C55.8442 35.2017 55.9215 35.8242 56.0762 36.4102C56.2308 36.988 56.4627 37.5007 56.772 37.9482C57.0894 38.3958 57.484 38.7498 57.9561 39.0103C58.4281 39.2625 58.9774 39.3887 59.604 39.3887C60.2225 39.3887 60.7637 39.2625 61.2275 39.0103C61.6995 38.7498 62.0902 38.3958 62.3994 37.9482C62.7087 37.5007 62.9406 36.988 63.0952 36.4102C63.258 35.8242 63.3394 35.2017 63.3394 34.5425V34.2617C63.3394 33.6107 63.258 32.9963 63.0952 32.4185C62.9406 31.8325 62.7046 31.3158 62.3872 30.8682C62.078 30.4124 61.6873 30.0544 61.2153 29.7939C60.7515 29.5335 60.2062 29.4033 59.5796 29.4033C58.9611 29.4033 58.4159 29.5335 57.9438 29.7939C57.48 30.0544 57.0894 30.4124 56.772 30.8682C56.4627 31.3158 56.2308 31.8325 56.0762 32.4185C55.9215 32.9963 55.8442 33.6107 55.8442 34.2617ZM76.73 38.7417V31.9424C76.73 31.4215 76.6242 30.9699 76.4126 30.5874C76.2091 30.1968 75.8999 29.8957 75.4849 29.6841C75.0698 29.4725 74.5571 29.3667 73.9468 29.3667C73.3771 29.3667 72.8766 29.4644 72.4453 29.6597C72.0221 29.855 71.6885 30.1113 71.4443 30.4287C71.2083 30.7461 71.0903 31.0879 71.0903 31.4541H68.832C68.832 30.9821 68.9541 30.5142 69.1982 30.0503C69.4424 29.5864 69.7923 29.1673 70.248 28.793C70.7119 28.4105 71.2653 28.1094 71.9082 27.8896C72.5592 27.6618 73.2835 27.5479 74.0811 27.5479C75.0413 27.5479 75.8877 27.7106 76.6201 28.0361C77.3607 28.3617 77.9385 28.854 78.3535 29.5132C78.7767 30.1642 78.9883 30.9821 78.9883 31.9668V38.1191C78.9883 38.5586 79.0249 39.0265 79.0981 39.5229C79.1795 40.0194 79.2975 40.4466 79.4521 40.8047V41H77.0962C76.9823 40.7396 76.8927 40.3937 76.8276 39.9624C76.7625 39.5229 76.73 39.116 76.73 38.7417ZM77.1206 32.9922L77.145 34.5791H74.8623C74.2194 34.5791 73.6457 34.632 73.1411 34.7378C72.6366 34.8354 72.2134 34.986 71.8716 35.1895C71.5298 35.3929 71.2694 35.6493 71.0903 35.9585C70.9113 36.2596 70.8218 36.6136 70.8218 37.0205C70.8218 37.4355 70.9154 37.814 71.1025 38.1558C71.2897 38.4976 71.5705 38.7702 71.9448 38.9736C72.3273 39.1689 72.7952 39.2666 73.3486 39.2666C74.0404 39.2666 74.6507 39.1201 75.1797 38.8271C75.7087 38.5342 76.1278 38.1761 76.437 37.7529C76.7544 37.3298 76.9253 36.9188 76.9497 36.52L77.9141 37.6064C77.8571 37.9482 77.7025 38.3267 77.4502 38.7417C77.1979 39.1567 76.8602 39.5555 76.437 39.938C76.022 40.3123 75.5256 40.6257 74.9478 40.8779C74.3781 41.1221 73.7352 41.2441 73.019 41.2441C72.1239 41.2441 71.3385 41.0692 70.6631 40.7192C69.9958 40.3693 69.4749 39.9014 69.1006 39.3154C68.7344 38.7214 68.5513 38.0581 68.5513 37.3257C68.5513 36.6177 68.6896 35.9951 68.9663 35.458C69.243 34.9128 69.6418 34.4611 70.1626 34.103C70.6834 33.7368 71.3101 33.4601 72.0425 33.2729C72.7749 33.0858 73.5928 32.9922 74.4961 32.9922H77.1206ZM91.3657 38.4365V22.25H93.6362V41H91.561L91.3657 38.4365ZM82.479 34.5425V34.2861C82.479 33.277 82.6011 32.3615 82.8452 31.5396C83.0975 30.7095 83.4515 29.9974 83.9072 29.4033C84.3711 28.8092 84.9204 28.3535 85.5552 28.0361C86.1981 27.7106 86.9142 27.5479 87.7036 27.5479C88.5337 27.5479 89.258 27.6943 89.8765 27.9873C90.5031 28.2721 91.0321 28.6912 91.4634 29.2446C91.9028 29.7899 92.2487 30.4491 92.501 31.2222C92.7533 31.9953 92.9282 32.8701 93.0259 33.8467V34.9697C92.9364 35.9382 92.7614 36.8089 92.501 37.582C92.2487 38.3551 91.9028 39.0143 91.4634 39.5596C91.0321 40.1048 90.5031 40.5239 89.8765 40.8169C89.2498 41.1017 88.5174 41.2441 87.6792 41.2441C86.9061 41.2441 86.1981 41.0773 85.5552 40.7437C84.9204 40.41 84.3711 39.9421 83.9072 39.3398C83.4515 38.7376 83.0975 38.0296 82.8452 37.2158C82.6011 36.3939 82.479 35.5028 82.479 34.5425ZM84.7495 34.2861V34.5425C84.7495 35.2017 84.8146 35.8201 84.9448 36.3979C85.0832 36.9757 85.2948 37.4844 85.5796 37.9238C85.8644 38.3633 86.2266 38.7091 86.666 38.9614C87.1055 39.2056 87.6304 39.3276 88.2407 39.3276C88.9894 39.3276 89.6038 39.1689 90.084 38.8516C90.5723 38.5342 90.9629 38.1151 91.2559 37.5942C91.5488 37.0734 91.7767 36.5078 91.9395 35.8975V32.9556C91.8418 32.508 91.6994 32.0767 91.5122 31.6616C91.3332 31.2384 91.0972 30.8641 90.8042 30.5386C90.5194 30.2049 90.1654 29.9404 89.7422 29.7451C89.3271 29.5498 88.8348 29.4521 88.2651 29.4521C87.6466 29.4521 87.1136 29.5824 86.666 29.8428C86.2266 30.0951 85.8644 30.445 85.5796 30.8926C85.2948 31.332 85.0832 31.8447 84.9448 32.4307C84.8146 33.0085 84.7495 33.627 84.7495 34.2861ZM107.051 23.2266V41H104.695V23.2266H107.051ZM114.497 31.2222V33.1509H106.538V31.2222H114.497ZM115.706 23.2266V25.1553H106.538V23.2266H115.706ZM121.125 27.792V41H118.854V27.792H121.125ZM118.684 24.2886C118.684 23.9224 118.793 23.6131 119.013 23.3608C119.241 23.1086 119.575 22.9824 120.014 22.9824C120.445 22.9824 120.775 23.1086 121.003 23.3608C121.239 23.6131 121.357 23.9224 121.357 24.2886C121.357 24.6385 121.239 24.9396 121.003 25.1919C120.775 25.436 120.445 25.5581 120.014 25.5581C119.575 25.5581 119.241 25.436 119.013 25.1919C118.793 24.9396 118.684 24.6385 118.684 24.2886ZM127.704 22.25V41H125.434V22.25H127.704ZM137.311 41.2441C136.391 41.2441 135.557 41.0895 134.808 40.7803C134.068 40.4629 133.429 40.0194 132.892 39.4497C132.363 38.88 131.956 38.2046 131.671 37.4233C131.386 36.6421 131.244 35.7876 131.244 34.8599V34.3472C131.244 33.2729 131.402 32.3167 131.72 31.4785C132.037 30.6322 132.468 29.916 133.014 29.3301C133.559 28.7441 134.177 28.3006 134.869 27.9995C135.561 27.6984 136.277 27.5479 137.018 27.5479C137.962 27.5479 138.775 27.7106 139.459 28.0361C140.151 28.3617 140.716 28.8174 141.156 29.4033C141.595 29.9811 141.921 30.6647 142.132 31.4541C142.344 32.2354 142.45 33.0898 142.45 34.0176V35.0308H132.586V33.1875H140.191V33.0166C140.159 32.4307 140.037 31.861 139.825 31.3076C139.622 30.7542 139.296 30.2985 138.849 29.9404C138.401 29.5824 137.791 29.4033 137.018 29.4033C136.505 29.4033 136.033 29.5132 135.602 29.7329C135.17 29.9445 134.8 30.2619 134.491 30.6851C134.181 31.1082 133.941 31.625 133.771 32.2354C133.6 32.8457 133.514 33.5496 133.514 34.3472V34.8599C133.514 35.4865 133.6 36.0765 133.771 36.6299C133.95 37.1751 134.206 37.6553 134.54 38.0703C134.881 38.4854 135.292 38.8109 135.772 39.0469C136.261 39.2829 136.814 39.4009 137.433 39.4009C138.23 39.4009 138.906 39.2381 139.459 38.9126C140.012 38.5871 140.497 38.1517 140.912 37.6064L142.279 38.6929C141.994 39.1242 141.632 39.5352 141.192 39.9258C140.753 40.3164 140.212 40.6338 139.569 40.8779C138.934 41.1221 138.181 41.2441 137.311 41.2441Z" fill="black"/>
<g clip-path="url(#clip0_627_7)">
<path d="M199.7 27.4982C198.34 20.4544 192.28 15.1665 185 15.1665C179.22 15.1665 174.2 18.5148 171.7 23.4148C165.68 24.0682 161 29.2744 161 35.5832C161 42.3411 166.38 47.8332 173 47.8332H199C204.52 47.8332 209 43.2598 209 37.6248C209 32.2348 204.9 27.8657 199.7 27.4982ZM189 33.5415V41.7082H181V33.5415H175L185 23.3332L195 33.5415H189Z" fill="black"/>
</g>
<defs>
<clipPath id="clip0_627_7">
<rect width="48" height="49" fill="white" transform="translate(161 7)"/>
</clipPath>
</defs>
</svg>
